<svg xmlns="http://www.w3.org/2000/svg" width="500" height="500" viewBox="0 0 500 500">
<g>
<path d="M 165.66 231.39 C163.01,235.44 160.52,234.72 157.40,229.00 C155.91,226.25 154.33,224.00 153.91,224.00 C153.48,224.00 152.83,222.99 152.47,221.75 C152.10,220.51 150.32,216.35 148.50,212.50 C143.36,201.58 141.50,193.77 141.50,183.00 C141.50,167.95 144.22,161.20 155.14,149.14 C163.05,140.39 171.95,136.16 184.77,135.06 C200.58,133.70 213.36,137.12 229.10,146.93 C232.62,149.12 237.88,152.30 240.79,153.99 C243.71,155.68 246.33,157.69 246.62,158.44 C246.91,159.20 248.27,160.10 249.65,160.45 C253.11,161.32 264.75,171.02 265.54,173.69 C265.90,174.90 269.86,179.17 274.34,183.18 C278.83,187.19 282.79,190.88 283.15,191.38 C284.39,193.12 301.09,210.78 306.25,215.82 C307.76,217.29 308.86,218.95 308.68,219.50 C308.51,220.05 306.60,221.40 304.43,222.50 C302.27,223.60 300.14,225.06 299.70,225.75 C298.40,227.78 294.36,227.19 292.73,224.75 C289.13,219.32 254.23,186.00 252.15,186.00 C250.68,186.00 241.10,178.33 235.88,172.97 C231.22,168.18 221.91,161.68 217.11,159.85 C215.68,159.31 213.83,158.29 213.00,157.59 C210.30,155.31 198.69,152.91 190.50,152.95 C177.07,153.01 172.77,154.69 166.79,162.21 C160.57,170.03 159.66,173.43 160.23,186.72 C160.58,194.95 161.25,199.56 162.44,202.00 C163.38,203.93 166.12,209.49 168.53,214.38 L 172.90 223.25 L 170.14 226.02 C168.62,227.54 166.61,229.95 165.66,231.39 ZM 285.33 281.83 C285.04,282.95 284.28,284.05 283.65,284.28 C281.58,285.04 280.20,283.94 280.72,281.95 C281.19,280.16 282.24,279.55 284.29,279.89 C285.22,280.05 290.00,275.05 290.00,273.92 C290.00,273.49 290.90,272.85 292.00,272.50 C293.10,272.15 294.00,271.39 294.00,270.82 C294.00,270.24 296.22,267.21 298.93,264.09 C305.37,256.64 311.00,248.04 311.00,245.62 C311.00,243.01 318.61,233.30 321.87,231.73 C323.32,231.04 325.33,228.68 326.35,226.49 C327.36,224.29 329.42,220.48 330.92,218.00 C339.16,204.37 342.41,188.77 339.96,174.67 C339.01,169.26 338.03,167.01 335.14,163.63 C328.81,156.24 325.04,154.18 315.78,153.05 C304.17,151.64 297.30,152.85 287.00,158.14 C276.18,163.69 274.70,164.30 275.61,162.82 C276.09,162.05 275.77,161.87 274.66,162.30 C273.75,162.65 273.00,162.56 273.00,162.10 C273.00,161.65 271.63,159.75 269.96,157.89 C264.73,152.06 264.64,151.50 268.52,148.86 C270.43,147.56 271.99,146.16 271.99,145.75 C272.00,145.34 272.53,145.00 273.18,145.00 C273.84,145.00 277.41,143.43 281.13,141.50 C284.85,139.57 288.93,138.00 290.20,137.99 C291.46,137.98 294.71,137.31 297.41,136.49 C303.17,134.74 316.80,134.54 322.48,136.12 C335.10,139.62 347.92,149.35 351.98,158.50 C358.82,173.90 359.50,178.28 357.27,192.27 C356.02,200.13 351.45,213.43 348.82,216.88 C347.82,218.20 347.00,219.86 347.00,220.58 C347.00,222.33 343.21,228.90 340.41,232.00 C339.16,233.38 337.83,235.76 337.45,237.31 C337.07,238.85 335.68,240.82 334.38,241.67 C332.87,242.66 332.00,244.19 332.00,245.87 C332.00,249.79 323.98,259.52 319.55,260.99 C317.39,261.70 315.40,263.26 314.55,264.90 C313.77,266.41 310.97,270.00 308.32,272.89 C303.31,278.34 296.03,284.43 297.50,281.93 C298.06,280.99 297.68,281.08 296.40,282.20 C294.51,283.85 294.47,283.78 294.83,280.01 C295.19,276.25 295.10,276.13 292.35,276.44 C290.52,276.65 289.55,277.32 289.63,278.30 C289.71,279.30 289.21,279.63 288.21,279.25 C287.12,278.83 286.91,279.04 287.49,279.98 C288.05,280.89 287.92,281.07 287.09,280.55 C286.31,280.08 285.67,280.54 285.33,281.83 ZM 179.00 352.94 C179.00,354.81 175.15,354.07 173.04,351.81 C171.51,350.17 171.31,349.43 172.24,348.85 C173.23,348.24 173.23,347.83 172.24,346.84 C171.25,345.85 171.00,345.94 171.00,347.26 C171.00,348.18 170.18,349.37 169.18,349.91 C167.35,350.88 163.34,348.79 156.93,343.50 C154.26,341.30 149.00,334.58 149.00,333.37 C149.00,332.95 147.90,331.01 146.55,329.05 C142.53,323.22 140.28,303.07 143.07,297.87 C143.58,296.91 144.00,295.17 144.00,294.00 C144.00,291.95 146.21,285.98 150.13,277.43 C151.16,275.20 152.00,273.08 152.00,272.72 C152.00,271.81 162.85,255.11 165.68,251.67 C166.96,250.12 168.00,248.09 168.00,247.17 C168.00,245.33 176.18,234.37 179.33,232.00 C182.48,229.63 185.97,225.95 193.50,217.06 C204.52,204.06 222.44,186.32 224.06,186.80 C226.05,187.40 235.00,196.17 235.00,197.52 C235.00,198.12 231.29,202.20 226.75,206.57 C216.15,216.79 198.69,235.69 197.86,237.84 C197.51,238.75 196.04,240.59 194.61,241.92 C193.17,243.26 192.00,245.12 192.00,246.05 C192.00,246.99 191.30,248.34 190.44,249.05 C189.58,249.76 187.31,252.70 185.41,255.58 C183.50,258.45 180.00,262.59 177.64,264.76 C173.45,268.63 169.00,275.67 169.00,278.45 C169.00,279.22 167.96,281.12 166.69,282.67 C162.14,288.24 159.80,295.81 159.25,306.75 C158.60,319.71 159.81,324.32 165.34,329.89 C172.68,337.30 173.66,338.00 176.73,338.00 C178.40,338.00 180.32,338.67 181.00,339.50 C181.68,340.33 183.31,341.00 184.62,341.00 C185.93,341.00 187.03,341.56 187.08,342.25 C187.12,342.94 187.31,344.32 187.50,345.31 C187.86,347.22 187.08,347.75 183.00,348.34 C181.18,348.61 180.53,349.29 180.62,350.83 C180.68,352.00 180.35,352.71 179.87,352.42 C179.39,352.12 179.00,352.36 179.00,352.94 ZM 231.12 307.25 C230.96,310.83 228.59,310.84 226.27,307.26 C224.14,303.95 219.92,300.08 218.41,300.03 C216.96,299.99 207.00,290.41 207.00,289.06 C207.00,288.48 206.49,288.00 205.86,288.00 C205.23,288.00 202.08,285.27 198.86,281.94 C192.28,275.13 192.25,274.32 198.48,268.50 C200.24,266.85 201.91,264.83 202.19,264.00 C202.56,262.91 204.12,263.99 207.89,267.91 C210.74,270.89 213.83,274.60 214.76,276.16 C215.68,277.73 217.13,279.22 217.99,279.50 C218.84,279.77 220.39,281.56 221.42,283.48 C222.46,285.41 226.39,289.72 230.15,293.06 C233.92,296.41 237.00,299.82 237.00,300.63 C237.00,301.45 236.60,301.87 236.11,301.57 C235.63,301.27 234.67,301.69 234.00,302.50 C233.33,303.31 232.36,303.72 231.86,303.41 C231.36,303.10 231.01,303.22 231.09,303.68 C231.17,304.13 231.18,305.74 231.12,307.25 ZM 290.01 288.03 C290.70,289.31 290.50,290.16 289.29,291.14 C288.13,292.09 287.84,292.12 288.37,291.25 C288.84,290.46 288.54,290.00 287.56,290.00 C286.70,290.00 286.00,289.75 286.00,289.43 C286.00,288.02 288.18,285.00 289.20,285.00 C289.82,285.00 290.05,285.28 289.70,285.63 C289.35,285.98 289.50,287.06 290.01,288.03 ZM 222.65 298.53 C223.28,300.17 226.56,300.52 227.47,299.05 C228.18,297.89 224.33,295.67 223.02,296.49 C222.51,296.80 222.34,297.72 222.65,298.53 ZM 176.69 346.36 C177.70,347.37 178.66,347.12 180.00,345.50 C181.04,344.25 180.90,344.00 179.18,344.00 C176.99,344.00 175.63,345.29 176.69,346.36 ZM 163.69 341.36 C164.65,342.31 167.00,342.13 167.00,341.11 C167.00,339.88 164.18,338.90 163.56,339.90 C163.28,340.35 163.34,341.01 163.69,341.36 ZM 217.00 293.00 C217.00,293.55 217.90,294.00 219.00,294.00 C220.10,294.00 221.00,293.55 221.00,293.00 C221.00,292.45 220.10,292.00 219.00,292.00 C217.90,292.00 217.00,292.45 217.00,293.00 Z" fill="rgb(59,154,246)"/>
<path d="M 285.33 281.83 C285.67,280.54 286.31,280.08 287.09,280.55 C287.92,281.07 288.05,280.89 287.49,279.98 C286.91,279.04 287.12,278.83 288.21,279.25 C289.21,279.63 289.71,279.30 289.63,278.30 C289.55,277.32 290.52,276.65 292.35,276.44 C295.10,276.13 295.19,276.25 294.83,280.01 C294.47,283.78 294.51,283.85 296.40,282.20 C297.68,281.08 298.06,280.99 297.50,281.93 C296.46,283.70 299.80,281.17 303.61,277.61 L 303.60 277.62 C288.35,292.92 281.63,300.29 278.68,305.00 C277.12,307.48 273.30,311.87 270.18,314.77 L 264.50 320.05 L 268.00 323.12 C269.92,324.81 273.52,327.08 276.00,328.17 C278.48,329.25 281.17,330.74 282.00,331.47 C282.83,332.21 287.33,334.17 292.00,335.85 C299.68,338.60 301.42,338.86 310.00,338.52 C322.97,338.02 325.76,336.96 332.47,330.00 C336.19,326.13 338.19,324.10 339.26,321.67 C340.50,318.85 340.50,315.49 340.50,308.11 L 340.50 307.46 C340.50,294.54 340.46,294.29 337.14,287.96 C335.29,284.43 332.90,280.41 331.82,279.02 C326.59,272.28 321.11,262.88 321.63,261.53 C321.99,260.59 321.59,260.28 320.82,260.40 C325.36,257.82 332.00,249.44 332.00,245.87 C332.00,245.47 332.05,245.09 332.14,244.72 C332.20,245.85 333.15,247.09 335.00,248.65 C336.65,250.04 338.00,251.84 338.00,252.66 C338.00,253.47 339.09,255.57 340.42,257.32 C341.76,259.07 344.04,263.42 345.50,267.00 C348.95,275.44 350.60,279.29 352.46,283.26 C353.29,285.04 354.92,290.65 356.07,295.72 C358.45,306.20 358.33,315.06 355.67,324.29 C353.75,330.95 349.59,339.26 348.64,338.31 C348.29,337.96 348.00,338.36 348.00,339.20 C348.00,341.16 338.93,349.67 335.29,351.11 C326.20,354.72 322.32,356.32 320.91,357.02 C318.72,358.12 308.64,359.31 307.89,358.56 C307.56,358.22 303.51,357.02 298.89,355.89 C294.28,354.76 289.60,353.47 288.50,353.02 C279.40,349.33 269.08,343.52 261.63,337.87 C255.80,333.45 252.22,331.36 251.15,331.77 C250.26,332.11 246.83,334.26 243.52,336.54 C240.21,338.83 233.68,342.32 229.00,344.30 C224.32,346.29 217.80,349.26 214.50,350.90 C203.39,356.44 191.48,357.63 179.13,354.44 C178.61,354.30 178.11,354.16 177.64,354.00 C178.44,353.98 179.00,353.65 179.00,352.94 C179.00,352.36 179.39,352.12 179.87,352.42 C180.35,352.71 180.68,352.00 180.62,350.83 C180.53,349.29 181.18,348.61 183.00,348.34 C187.08,347.75 187.86,347.22 187.50,345.31 C187.31,344.32 187.12,342.94 187.08,342.25 C187.03,341.56 185.93,341.00 184.62,341.00 C183.31,341.00 181.68,340.33 181.00,339.50 C182.40,341.18 192.48,341.64 193.46,340.07 C193.78,339.55 195.28,339.17 196.81,339.21 C200.05,339.31 206.37,337.36 210.16,335.09 C215.23,332.07 233.91,318.96 234.48,318.03 C234.88,317.38 232.07,313.63 228.67,309.72 C230.00,310.38 231.02,309.55 231.12,307.25 C231.18,305.74 231.17,304.13 231.09,303.68 C231.01,303.22 231.36,303.10 231.86,303.41 C232.36,303.72 233.33,303.31 234.00,302.50 C234.67,301.69 235.63,301.27 236.11,301.57 C236.60,301.87 237.00,301.45 237.00,300.63 C237.00,299.82 233.92,296.41 230.15,293.06 C227.53,290.74 224.83,287.94 223.08,285.81 C225.06,288.15 228.37,291.42 231.64,294.18 C236.13,297.96 240.06,301.72 240.37,302.53 C240.68,303.34 241.82,304.00 242.91,304.00 C243.99,304.00 245.18,304.48 245.54,305.07 C245.91,305.66 247.17,306.53 248.35,307.01 C251.04,308.09 251.50,308.16 250.71,307.38 C250.37,307.04 250.64,306.25 251.30,305.63 C254.99,302.19 264.27,294.98 269.50,291.50 C272.80,289.31 276.15,286.61 276.95,285.51 C277.69,284.48 279.42,282.66 280.94,281.30 C280.86,281.50 280.78,281.72 280.72,281.95 C280.20,283.94 281.58,285.04 283.65,284.28 C284.28,284.05 285.04,282.95 285.33,281.83 ZM 319.99 231.51 C318.91,232.82 319.00,232.94 320.61,232.37 C320.79,232.30 320.98,232.23 321.17,232.15 C317.63,234.56 311.00,243.18 311.00,245.62 C311.00,246.93 309.33,250.09 306.77,253.89 C309.35,250.04 310.97,246.88 310.92,245.52 C310.88,244.41 310.62,244.06 310.34,244.75 C310.06,245.44 309.49,246.00 309.06,246.00 C308.01,246.00 299.67,235.25 297.59,231.20 C296.59,229.25 296.19,228.41 294.19,226.14 C296.08,227.32 298.70,227.31 299.70,225.75 C300.14,225.06 302.27,223.60 304.43,222.50 C306.60,221.40 308.51,220.05 308.68,219.50 C308.86,218.95 307.76,217.29 306.25,215.82 C305.36,214.96 304.14,213.72 302.71,212.26 C304.85,214.34 308.33,217.68 311.88,221.06 C319.87,228.66 321.07,230.21 319.99,231.51 ZM 214.71 276.09 C215.66,277.69 217.13,279.22 217.99,279.50 C217.13,279.22 215.68,277.72 214.76,276.16 C213.83,274.60 210.74,270.89 207.89,267.91 C204.12,263.99 202.56,262.91 202.19,264.00 C201.91,264.83 200.24,266.85 198.48,268.50 C192.51,274.08 192.29,275.05 198.07,281.12 C196.30,279.43 194.34,277.54 192.31,275.53 L 179.71 263.06 L 177.09 265.29 C177.27,265.11 177.46,264.93 177.64,264.76 C180.00,262.59 183.50,258.45 185.41,255.58 C187.31,252.70 189.58,249.76 190.44,249.05 C191.30,248.34 192.00,246.99 192.00,246.05 C192.00,245.74 192.13,245.33 192.35,244.88 C191.73,246.55 192.47,248.09 194.58,250.07 C196.00,251.41 198.75,255.13 200.71,258.34 C202.66,261.56 206.23,266.21 208.62,268.68 C211.02,271.15 213.76,274.48 214.71,276.09 ZM 196.15 214.00 C196.78,213.25 197.31,212.62 197.69,212.16 C199.24,210.33 205.45,203.77 211.50,197.59 C217.55,191.41 224.30,184.36 226.50,181.92 C228.70,179.48 231.85,176.44 233.50,175.15 L 236.06 173.16 C240.55,177.73 248.07,183.87 251.06,185.56 C250.36,185.47 249.72,185.65 249.47,186.04 C249.15,186.57 245.20,190.11 240.69,193.91 C234.61,199.04 225.67,207.60 217.52,215.84 C220.78,212.46 224.00,209.23 226.75,206.57 C231.29,202.20 235.00,198.12 235.00,197.52 C235.00,196.17 226.05,187.40 224.06,186.80 C222.56,186.36 207.17,201.44 196.15,214.00 ZM 242.79 155.23 C244.76,156.51 246.35,157.76 246.68,158.32 C248.26,161.00 250.54,160.70 254.82,157.24 C257.19,155.32 261.24,152.73 263.82,151.47 C266.39,150.22 269.49,148.25 270.71,147.09 C271.06,146.76 271.43,146.44 271.78,146.15 C271.28,146.77 270.01,147.85 268.52,148.86 C264.64,151.50 264.73,152.06 269.96,157.89 C271.63,159.75 273.00,161.65 273.00,162.10 C273.00,162.56 273.75,162.65 274.66,162.30 C275.77,161.87 276.09,162.05 275.61,162.82 C274.76,164.19 275.98,163.77 284.80,159.26 C276.15,164.16 266.12,171.98 266.05,174.11 C266.03,174.73 267.84,176.90 270.49,179.55 C267.78,176.86 265.79,174.53 265.54,173.69 C264.75,171.02 253.11,161.32 249.65,160.45 C248.27,160.10 246.91,159.20 246.62,158.44 C246.40,157.87 244.82,156.56 242.79,155.23 ZM 165.66 231.39 C166.61,229.95 168.62,227.54 170.14,226.02 L 172.90 223.25 L 168.53 214.38 C166.12,209.49 163.38,203.93 162.44,202.00 C162.37,201.85 162.30,201.69 162.23,201.53 C162.24,201.55 162.25,201.57 162.26,201.59 C163.12,203.19 165.64,208.32 167.86,213.00 C170.07,217.68 173.83,223.57 176.19,226.10 C178.32,228.37 180.52,230.11 181.42,230.28 C180.68,230.94 180.00,231.50 179.33,232.00 C176.18,234.37 168.00,245.33 168.00,247.17 C168.00,248.09 166.96,250.12 165.68,251.67 C165.40,252.01 165.05,252.47 164.64,253.04 C165.75,251.35 166.56,250.11 166.87,249.62 C168.11,247.69 167.94,247.00 165.28,242.98 C163.64,240.52 161.03,235.92 159.46,232.78 C159.04,231.93 158.56,231.04 158.07,230.16 C160.88,234.80 163.20,235.15 165.66,231.39 ZM 290.01 288.03 C289.50,287.06 289.35,285.98 289.70,285.63 C290.05,285.28 289.82,285.00 289.20,285.00 C288.18,285.00 286.00,288.02 286.00,289.43 C286.00,289.75 286.70,290.00 287.56,290.00 C288.54,290.00 288.84,290.46 288.37,291.25 C287.84,292.12 288.13,292.09 289.29,291.14 C290.50,290.16 290.70,289.31 290.01,288.03 ZM 282.56 279.88 C284.04,278.57 285.79,276.97 286.94,275.86 C288.47,274.41 290.68,272.92 291.86,272.55 C293.04,272.17 294.00,271.39 294.00,270.82 C294.00,271.39 293.10,272.15 292.00,272.50 C290.90,272.85 290.00,273.49 290.00,273.92 C290.00,275.05 285.22,280.05 284.29,279.89 C283.61,279.78 283.04,279.77 282.56,279.88 ZM 176.69 346.36 C175.63,345.29 176.99,344.00 179.18,344.00 C180.90,344.00 181.04,344.25 180.00,345.50 C178.66,347.12 177.70,347.37 176.69,346.36 ZM 252.39 186.07 C255.87,187.67 285.54,215.95 291.86,223.60 C289.98,221.61 287.31,218.84 283.39,214.78 C273.11,204.12 256.37,188.66 252.39,186.07 ZM 331.03 217.82 C334.76,211.12 337.39,204.77 338.98,198.56 C337.38,205.17 334.71,211.69 331.03,217.82 ZM 225.68 306.40 C222.77,303.28 219.97,300.63 218.76,300.10 C220.34,300.57 223.61,303.55 225.68,306.40 ZM 227.02 165.63 C223.11,163.02 218.98,160.56 217.11,159.85 C219.61,160.80 223.35,163.03 227.02,165.63 ZM 318.23 261.53 C316.68,262.50 315.05,263.95 314.32,265.36 C314.07,265.85 313.49,266.65 312.68,267.66 C313.55,266.52 314.23,265.53 314.55,264.90 C315.22,263.60 316.61,262.35 318.23,261.53 ZM 294.16 203.35 C288.82,197.72 283.81,192.30 283.15,191.38 C283.52,191.90 289.04,197.88 294.16,203.35 ZM 157.43 229.05 C156.27,227.07 155.09,225.28 154.30,224.37 C154.21,224.26 154.12,224.15 154.03,224.04 C154.57,224.35 156.02,226.46 157.40,229.00 ZM 171.61 272.24 C170.19,274.67 169.11,277.11 169.00,278.45 C169.00,277.10 170.05,274.74 171.61,272.24 ZM 172.85 351.61 C171.99,350.90 171.56,350.20 171.68,349.61 C171.65,350.08 172.03,350.70 172.85,351.61 ZM 152.52 221.93 C152.20,221.38 152.00,220.93 152.00,220.69 C152.00,220.58 151.95,220.37 151.85,220.07 C152.15,220.81 152.36,221.40 152.47,221.75 C152.49,221.81 152.50,221.87 152.52,221.93 ZM 299.79 153.30 C304.60,152.29 309.49,152.29 315.78,153.05 C309.58,152.30 304.61,152.32 299.79,153.30 ZM 168.99 278.57 C168.99,278.61 168.99,278.64 168.99,278.67 C169.00,279.32 167.96,281.12 166.69,282.67 C167.90,281.19 168.90,279.40 168.99,278.57 ZM 326.67 225.81 C327.12,224.85 327.77,223.58 328.54,222.20 C327.84,223.49 327.17,224.77 326.67,225.81 ZM 172.72 348.50 C173.15,348.06 173.00,347.60 172.24,346.84 C173.03,347.63 173.19,348.05 172.72,348.50 ZM 273.92 182.79 C274.03,182.89 274.14,182.99 274.25,183.09 C274.61,183.41 274.96,183.73 275.31,184.04 C274.99,183.76 274.67,183.47 274.34,183.18 C274.20,183.05 274.06,182.92 273.92,182.79 Z" fill="rgb(52,113,232)"/>
<path d="M 214.71 276.09 C213.76,274.48 211.02,271.15 208.62,268.68 C206.23,266.21 202.66,261.56 200.71,258.34 C198.75,255.13 196.00,251.41 194.58,250.07 C192.47,248.09 191.73,246.55 192.35,244.88 C192.80,243.95 193.65,242.82 194.61,241.92 C196.04,240.59 197.51,238.75 197.86,237.84 C198.47,236.25 208.21,225.48 217.52,215.84 C225.67,207.60 234.61,199.04 240.69,193.91 C245.20,190.11 249.15,186.57 249.47,186.04 C249.72,185.65 250.36,185.47 251.06,185.56 C251.57,185.84 251.94,186.00 252.15,186.00 C252.21,186.00 252.29,186.02 252.39,186.07 C256.37,188.66 273.11,204.12 283.39,214.78 C287.31,218.84 289.98,221.61 291.86,223.60 C292.24,224.06 292.53,224.45 292.73,224.75 C293.11,225.32 293.62,225.78 294.19,226.14 C296.19,228.41 296.59,229.25 297.59,231.20 C299.67,235.25 308.01,246.00 309.06,246.00 C309.49,246.00 310.06,245.44 310.34,244.75 C310.62,244.06 310.88,244.41 310.92,245.52 C310.97,246.88 309.35,250.04 306.77,253.88 L 306.77 253.89 C304.63,257.07 301.86,260.70 298.93,264.09 C296.22,267.21 294.00,270.24 294.00,270.82 C294.00,271.39 293.04,272.17 291.86,272.55 C290.68,272.92 288.47,274.41 286.94,275.86 C285.79,276.97 284.04,278.57 282.56,279.88 C281.80,280.05 281.28,280.51 280.94,281.30 C279.42,282.66 277.69,284.48 276.95,285.51 C276.15,286.61 272.80,289.31 269.50,291.50 C264.27,294.98 254.99,302.19 251.30,305.63 C250.64,306.25 250.37,307.04 250.71,307.38 C251.50,308.16 251.04,308.09 248.35,307.01 C247.17,306.53 245.91,305.66 245.54,305.07 C245.18,304.48 243.99,304.00 242.91,304.00 C241.82,304.00 240.68,303.34 240.37,302.53 C240.06,301.72 236.13,297.96 231.64,294.18 C228.37,291.42 225.06,288.15 223.08,285.81 C222.32,284.87 221.74,284.07 221.42,283.48 C220.39,281.56 218.84,279.77 217.99,279.50 L 217.99 279.50 C217.98,279.49 217.98,279.49 217.97,279.49 C217.11,279.21 215.65,277.68 214.71,276.09 ZM 244.81 301.25 C247.38,303.31 249.82,305.00 250.22,305.00 C253.68,305.00 294.37,264.18 305.66,249.38 C306.52,248.26 307.25,247.63 307.46,246.86 C307.93,245.11 305.66,242.63 295.87,231.93 C294.52,230.45 293.02,228.82 291.36,227.00 C279.01,213.45 270.18,204.55 254.46,189.79 L 250.43 186.00 L 236.89 198.92 C224.35,210.88 205.64,231.00 196.59,242.24 L 192.77 246.99 L 200.12 255.74 C208.71,265.97 238.01,295.81 244.81,301.25 ZM 319.99 231.51 C321.07,230.21 319.87,228.66 311.88,221.06 C308.33,217.68 304.85,214.34 302.71,212.26 C300.24,209.72 297.15,206.50 294.16,203.35 C289.04,197.88 283.52,191.90 283.15,191.38 C282.82,190.91 279.38,187.71 275.31,184.04 L 275.30 184.04 C274.95,183.72 274.60,183.41 274.25,183.09 C274.14,182.99 274.03,182.89 273.92,182.79 C272.71,181.70 271.54,180.60 270.49,179.55 C267.84,176.90 266.03,174.73 266.05,174.11 C266.12,171.98 276.15,164.16 284.80,159.26 C285.48,158.91 286.22,158.54 287.00,158.14 C291.72,155.71 295.72,154.15 299.79,153.30 C304.61,152.32 309.58,152.30 315.78,153.05 C325.04,154.18 328.81,156.24 335.14,163.63 C338.03,167.01 339.01,169.26 339.96,174.67 C341.30,182.38 340.93,190.53 338.98,198.56 L 338.98 198.56 C337.39,204.77 334.76,211.12 331.03,217.82 C330.99,217.88 330.95,217.94 330.92,218.00 C330.19,219.20 329.34,220.71 328.54,222.20 L 328.53 222.20 C327.77,223.58 327.12,224.85 326.67,225.81 C326.55,226.05 326.44,226.28 326.35,226.49 C325.33,228.68 323.32,231.04 321.87,231.73 C321.66,231.84 321.42,231.98 321.17,232.15 C320.98,232.23 320.79,232.30 320.61,232.37 C319.00,232.94 318.91,232.82 319.99,231.51 ZM 225.68 306.40 C225.89,306.69 226.09,306.97 226.27,307.26 C227.10,308.54 227.93,309.36 228.67,309.72 C232.07,313.63 234.88,317.38 234.48,318.03 C233.91,318.96 215.23,332.07 210.16,335.09 C206.37,337.36 200.05,339.31 196.81,339.21 C195.28,339.17 193.78,339.55 193.46,340.07 C192.48,341.64 182.40,341.18 181.00,339.50 C180.32,338.67 178.40,338.00 176.73,338.00 C173.66,338.00 172.68,337.30 165.34,329.89 C159.81,324.32 158.60,319.71 159.25,306.75 C159.80,295.81 162.14,288.24 166.69,282.67 C167.96,281.12 169.00,279.32 168.99,278.67 C168.99,278.64 168.99,278.61 168.99,278.57 C169.00,278.53 169.00,278.49 169.00,278.45 L 169.00 278.45 C169.11,277.11 170.19,274.67 171.61,272.24 C173.12,269.81 175.11,267.23 177.09,265.29 L 179.71 263.06 L 192.31 275.53 C194.34,277.54 196.30,279.43 198.07,281.12 C198.32,281.38 198.59,281.65 198.86,281.94 C202.08,285.27 205.23,288.00 205.86,288.00 C206.49,288.00 207.00,288.48 207.00,289.06 C207.00,290.41 216.96,299.99 218.41,300.03 C218.51,300.03 218.63,300.06 218.76,300.10 C219.97,300.63 222.77,303.28 225.68,306.40 ZM 196.15 214.00 C195.23,215.04 194.35,216.07 193.50,217.06 C187.57,224.06 184.14,227.83 181.42,230.28 C180.52,230.11 178.32,228.37 176.19,226.10 C173.83,223.57 170.07,217.68 167.86,213.00 C165.64,208.32 163.12,203.19 162.26,201.59 C162.25,201.57 162.24,201.55 162.23,201.53 C161.17,198.98 160.56,194.44 160.23,186.72 C159.66,173.43 160.57,170.03 166.79,162.21 C172.77,154.69 177.07,153.01 190.50,152.95 C198.69,152.91 210.30,155.31 213.00,157.59 C213.83,158.29 215.68,159.31 217.11,159.85 C219.61,160.80 223.35,163.03 227.02,165.63 C230.37,168.01 233.66,170.69 235.88,172.97 C235.94,173.03 236.00,173.09 236.06,173.16 L 233.50 175.15 C231.85,176.44 228.70,179.48 226.50,181.92 C224.30,184.36 217.55,191.41 211.50,197.59 C205.45,203.77 199.24,210.33 197.69,212.16 C197.31,212.62 196.78,213.25 196.15,214.00 ZM 176.34 224.22 C178.08,226.82 179.76,228.96 180.08,228.97 C180.39,228.99 183.09,225.97 186.08,222.26 C189.06,218.56 200.98,205.96 212.57,194.27 C233.52,173.15 233.63,173.01 231.57,171.19 C224.87,165.27 207.59,156.61 199.17,154.95 C192.28,153.60 182.01,154.17 177.41,156.15 C165.18,161.44 158.29,175.37 160.96,189.40 C163.04,200.31 168.31,212.24 176.34,224.22 ZM 310.00 216.91 C315.77,223.51 320.73,228.91 321.00,228.92 C321.65,228.93 325.86,222.21 330.39,213.93 C337.74,200.49 340.86,186.46 338.62,176.85 C334.84,160.58 324.04,153.07 306.23,154.32 C298.96,154.83 296.33,155.55 289.25,158.95 C281.28,162.78 273.99,167.29 269.41,171.25 C267.33,173.04 267.41,173.14 283.41,188.98 C292.26,197.74 304.23,210.30 310.00,216.91 ZM 179.33 336.15 C186.00,338.45 191.93,338.45 200.01,336.14 C207.37,334.03 225.54,325.10 229.88,321.45 L 232.75 319.03 L 210.59 296.76 C198.40,284.52 186.67,272.14 184.51,269.25 C182.35,266.36 180.34,264.01 180.04,264.03 C179.75,264.05 176.95,268.21 173.84,273.28 C163.11,290.77 158.66,305.26 161.01,315.06 C163.65,326.07 169.44,332.73 179.33,336.15 ZM 242.79 155.23 C242.16,154.81 241.48,154.39 240.79,153.99 C237.88,152.30 232.62,149.12 229.10,146.93 C213.36,137.12 200.58,133.70 184.77,135.06 C171.95,136.16 163.05,140.39 155.14,149.14 C144.22,161.20 141.50,167.95 141.50,183.00 C141.50,193.77 143.36,201.58 148.50,212.50 C149.80,215.26 151.09,218.18 151.85,220.07 C151.95,220.37 152.00,220.58 152.00,220.69 C152.00,220.93 152.20,221.38 152.52,221.93 C152.90,223.08 153.50,224.00 153.91,224.00 C153.94,224.00 153.98,224.01 154.03,224.04 C154.12,224.15 154.21,224.26 154.30,224.37 C155.09,225.28 156.27,227.07 157.43,229.05 C157.65,229.44 157.86,229.82 158.07,230.16 C158.56,231.04 159.04,231.93 159.46,232.78 C161.03,235.92 163.64,240.52 165.28,242.98 C167.94,247.00 168.11,247.69 166.87,249.62 C166.56,250.11 165.75,251.35 164.64,253.04 C160.83,258.23 152.00,271.90 152.00,272.72 C152.00,273.08 151.16,275.20 150.13,277.43 C146.21,285.98 144.00,291.95 144.00,294.00 C144.00,295.17 143.58,296.91 143.07,297.87 C140.28,303.07 142.53,323.22 146.55,329.05 C147.90,331.01 149.00,332.95 149.00,333.37 C149.00,334.58 154.26,341.30 156.93,343.50 C163.34,348.79 167.35,350.88 169.18,349.91 C170.18,349.37 171.00,348.18 171.00,347.26 C171.00,345.94 171.25,345.85 172.24,346.84 C173.00,347.60 173.15,348.06 172.72,348.50 C172.60,348.61 172.44,348.73 172.24,348.85 C171.89,349.07 171.70,349.31 171.68,349.61 C171.56,350.20 171.99,350.90 172.85,351.61 C172.91,351.68 172.97,351.74 173.04,351.81 C174.34,353.21 176.32,354.03 177.64,354.00 C178.11,354.16 178.61,354.30 179.13,354.44 C191.48,357.63 203.39,356.44 214.50,350.90 C217.80,349.26 224.32,346.29 229.00,344.30 C233.68,342.32 240.21,338.83 243.52,336.54 C245.39,335.25 247.31,334.00 248.78,333.09 L 240.28 338.81 C229.70,345.93 215.48,353.29 207.25,355.92 C198.93,358.58 185.99,359.27 178.06,357.49 C164.09,354.36 152.20,345.45 145.90,333.39 C140.69,323.42 139.70,318.76 140.23,306.80 C140.94,290.69 146.01,277.77 159.80,256.86 L 166.82 246.23 L 161.60 238.86 C147.70,219.22 140.93,202.69 140.20,186.59 C139.66,174.55 141.00,167.83 145.76,158.70 C151.92,146.87 163.93,137.64 177.23,134.51 C198.37,129.52 218.97,136.34 249.48,158.41 C250.31,159.02 251.86,158.52 254.10,156.91 C255.95,155.59 258.19,154.05 259.09,153.50 C259.99,152.95 262.92,150.82 265.61,148.77 C268.30,146.72 274.55,143.03 279.50,140.59 C298.66,131.12 319.51,130.59 334.75,139.19 C351.22,148.47 360.01,164.11 359.95,184.00 C359.91,200.85 353.50,218.13 339.81,238.34 C333.91,247.05 333.82,247.18 335.67,249.26 C335.46,249.05 335.23,248.85 335.00,248.65 C333.15,247.09 332.20,245.85 332.14,244.72 C332.44,243.51 333.22,242.43 334.38,241.67 C335.68,240.82 337.07,238.85 337.45,237.31 C337.83,235.76 339.16,233.38 340.41,232.00 C343.21,228.90 347.00,222.33 347.00,220.58 C347.00,219.86 347.82,218.20 348.82,216.88 C351.45,213.43 356.02,200.13 357.27,192.27 C359.50,178.28 358.82,173.90 351.98,158.50 C347.92,149.35 335.10,139.62 322.48,136.12 C316.80,134.54 303.17,134.74 297.41,136.49 C294.71,137.31 291.46,137.98 290.20,137.99 C288.93,138.00 284.85,139.57 281.13,141.50 C277.41,143.43 273.84,145.00 273.18,145.00 C272.53,145.00 272.00,145.34 271.99,145.75 C271.99,145.84 271.92,145.98 271.78,146.15 C271.43,146.44 271.06,146.76 270.71,147.09 C269.49,148.25 266.39,150.22 263.82,151.47 C261.24,152.73 257.19,155.32 254.82,157.24 C250.54,160.70 248.26,161.00 246.68,158.32 C246.35,157.76 244.76,156.51 242.79,155.23 ZM 318.23 261.53 C318.65,261.32 319.10,261.13 319.55,260.99 C319.94,260.85 320.37,260.65 320.82,260.40 C321.59,260.28 321.99,260.59 321.63,261.53 C321.33,262.32 323.05,265.82 325.57,269.94 C324.58,268.37 323.71,267.18 323.05,266.55 L 320.22 263.84 L 318.74 265.97 C313.83,272.98 285.23,302.40 272.75,313.29 C269.59,316.04 267.00,318.64 267.00,319.06 C267.00,320.06 283.38,330.32 288.50,332.54 C290.70,333.48 295.88,335.28 300.00,336.53 C303.23,337.50 306.24,338.19 308.74,338.57 C301.23,338.82 299.29,338.46 292.00,335.85 C287.33,334.17 282.83,332.21 282.00,331.47 C281.17,330.74 278.48,329.25 276.00,328.17 C273.52,327.08 269.92,324.81 268.00,323.12 L 264.50 320.05 L 270.18 314.77 C273.30,311.87 277.12,307.48 278.68,305.00 C281.63,300.29 288.35,292.92 303.60,277.62 L 303.61 277.61 C305.19,276.14 306.85,274.48 308.32,272.89 C309.87,271.20 311.47,269.27 312.68,267.66 C313.49,266.65 314.07,265.85 314.32,265.36 C315.05,263.95 316.68,262.50 318.23,261.53 ZM 316.89 358.04 C318.67,357.74 320.20,357.38 320.91,357.02 C322.32,356.32 326.20,354.72 335.29,351.11 C338.93,349.67 348.00,341.16 348.00,339.20 C348.00,338.36 348.29,337.96 348.64,338.31 C349.59,339.26 353.75,330.95 355.67,324.29 C358.33,315.06 358.45,306.20 356.07,295.72 C354.92,290.65 353.29,285.04 352.46,283.26 C350.60,279.29 348.95,275.44 345.50,267.00 C344.04,263.42 341.76,259.07 340.42,257.32 C339.09,255.57 338.00,253.47 338.00,252.66 C338.00,252.40 337.87,252.05 337.63,251.64 C343.07,258.73 350.40,271.85 354.46,282.00 C364.44,306.92 360.79,330.97 344.82,345.42 C338.71,350.95 333.76,353.81 325.50,356.56 C323.32,357.29 320.30,357.78 316.89,358.04 ZM 315.34 338.23 C315.38,338.19 315.41,338.15 315.43,338.11 C315.73,337.63 317.48,336.95 319.31,336.60 C324.23,335.68 331.53,330.66 334.52,326.16 C335.95,323.98 337.78,319.40 338.58,315.97 C340.16,309.22 339.51,302.52 336.31,292.50 C334.38,286.46 329.66,276.65 326.12,270.83 C327.83,273.56 329.84,276.48 331.82,279.02 C332.90,280.41 335.29,284.43 337.14,287.96 C340.46,294.29 340.50,294.54 340.50,307.46 L 340.50 308.11 C340.50,315.49 340.50,318.85 339.26,321.67 C338.19,324.10 336.19,326.13 332.47,330.00 C326.80,335.88 323.93,337.55 315.34,338.23 ZM 249.33 332.76 C250.18,332.25 250.83,331.89 251.15,331.77 C252.22,331.36 255.80,333.45 261.63,337.87 C269.08,343.52 279.40,349.33 288.50,353.02 C289.60,353.47 294.28,354.76 298.89,355.89 C302.40,356.75 305.58,357.65 307.05,358.18 C302.40,357.98 297.78,357.43 294.04,356.51 C285.73,354.47 269.18,346.40 261.00,340.40 C257.98,338.18 254.11,335.55 252.40,334.55 ZM 222.65 298.53 C222.34,297.72 222.51,296.80 223.02,296.49 C224.33,295.67 228.18,297.89 227.47,299.05 C226.56,300.52 223.28,300.17 222.65,298.53 ZM 163.69 341.36 C163.34,341.01 163.28,340.35 163.56,339.90 C164.18,338.90 167.00,339.88 167.00,341.11 C167.00,342.13 164.65,342.31 163.69,341.36 ZM 217.00 293.00 C217.00,292.45 217.90,292.00 219.00,292.00 C220.10,292.00 221.00,292.45 221.00,293.00 C221.00,293.55 220.10,294.00 219.00,294.00 C217.90,294.00 217.00,293.55 217.00,293.00 Z" fill="rgb(79,141,225)"/>
<path d="M 0.00 250.00 L 0.00 0.00 L 250.00 0.00 L 500.00 0.00 L 500.00 250.00 L 500.00 500.00 L 250.00 500.00 L 0.00 500.00 L 0.00 250.00 ZM 207.25 355.92 C215.48,353.29 229.70,345.93 240.28,338.81 L 249.30 332.75 L 252.40 334.55 C254.11,335.55 257.98,338.18 261.00,340.40 C269.18,346.40 285.73,354.47 294.04,356.51 C303.50,358.83 318.63,358.85 325.50,356.56 C333.76,353.81 338.71,350.95 344.82,345.42 C360.79,330.97 364.44,306.92 354.46,282.00 C349.91,270.62 341.24,255.51 335.75,249.34 C333.82,247.18 333.83,247.16 339.81,238.34 C353.50,218.13 359.91,200.85 359.95,184.00 C360.01,164.11 351.22,148.47 334.75,139.19 C319.51,130.59 298.66,131.12 279.50,140.59 C274.55,143.03 268.30,146.72 265.61,148.77 C262.92,150.82 259.99,152.95 259.09,153.50 C258.19,154.05 255.95,155.59 254.10,156.91 C251.86,158.52 250.31,159.02 249.48,158.41 C218.97,136.34 198.37,129.52 177.23,134.51 C163.93,137.64 151.92,146.87 145.76,158.70 C141.00,167.83 139.66,174.55 140.20,186.59 C140.93,202.69 147.70,219.22 161.60,238.86 L 166.82 246.23 L 159.80 256.86 C146.01,277.77 140.94,290.69 140.23,306.80 C139.70,318.76 140.69,323.42 145.90,333.39 C152.20,345.45 164.09,354.36 178.06,357.49 C185.99,359.27 198.93,358.58 207.25,355.92 ZM 300.00 336.53 C295.88,335.28 290.70,333.48 288.50,332.54 C283.38,330.32 267.00,320.06 267.00,319.06 C267.00,318.64 269.59,316.04 272.75,313.29 C285.23,302.40 313.83,272.98 318.74,265.97 L 320.22 263.84 L 323.05 266.55 C326.09,269.46 333.71,284.38 336.31,292.50 C339.51,302.52 340.16,309.22 338.58,315.97 C337.78,319.40 335.95,323.98 334.52,326.16 C331.53,330.66 324.23,335.68 319.31,336.60 C317.48,336.95 315.73,337.63 315.43,338.11 C314.51,339.60 307.91,338.92 300.00,336.53 ZM 179.33 336.15 C169.44,332.73 163.65,326.07 161.01,315.06 C158.66,305.26 163.11,290.77 173.84,273.28 C176.95,268.21 179.75,264.05 180.04,264.03 C180.34,264.01 182.35,266.36 184.51,269.25 C186.67,272.14 198.40,284.52 210.59,296.76 L 232.75 319.03 L 229.88 321.45 C225.54,325.10 207.37,334.03 200.01,336.14 C191.93,338.45 186.00,338.45 179.33,336.15 ZM 244.81 301.25 C238.01,295.81 208.71,265.97 200.12,255.74 L 192.77 246.99 L 196.59 242.24 C205.64,231.00 224.35,210.88 236.89,198.92 L 250.43 186.00 L 254.46 189.79 C270.18,204.55 279.01,213.45 291.36,227.00 C310.24,247.70 308.74,245.34 305.66,249.38 C294.37,264.18 253.68,305.00 250.22,305.00 C249.82,305.00 247.38,303.31 244.81,301.25 ZM 176.34 224.22 C168.31,212.24 163.04,200.31 160.96,189.40 C158.29,175.37 165.18,161.44 177.41,156.15 C182.01,154.17 192.28,153.60 199.17,154.95 C207.59,156.61 224.87,165.27 231.57,171.19 C233.63,173.01 233.52,173.15 212.57,194.27 C200.98,205.96 189.06,218.56 186.08,222.26 C183.09,225.97 180.39,228.99 180.08,228.97 C179.76,228.96 178.08,226.82 176.34,224.22 ZM 310.00 216.91 C304.23,210.30 292.26,197.74 283.41,188.98 C267.41,173.14 267.33,173.04 269.41,171.25 C273.99,167.29 281.28,162.78 289.25,158.95 C296.33,155.55 298.96,154.83 306.23,154.32 C324.04,153.07 334.84,160.58 338.62,176.85 C340.86,186.46 337.74,200.49 330.39,213.93 C325.86,222.21 321.65,228.93 321.00,228.92 C320.73,228.91 315.77,223.51 310.00,216.91 Z" fill="rgb(254,254,254)"/>
</g>
</svg>